<?xml version="1.0" standalone="no"?>
<!DOCTYPE svg PUBLIC "-//W3C//DTD SVG 20010904//EN"
 "http://www.w3.org/TR/2001/REC-SVG-20010904/DTD/svg10.dtd">
<svg version="1.0" xmlns="http://www.w3.org/2000/svg"
 width="512.000000pt" height="512.000000pt" viewBox="0 0 512.000000 512.000000"
 preserveAspectRatio="xMidYMid meet">

<g transform="translate(0.000000,512.000000) scale(0.100000,-0.100000)"
fill="#000000" stroke="none">
<path d="M1338 5110 c-498 -91 -788 -585 -617 -1054 31 -85 102 -206 143 -245
l26 -24 0 -704 0 -703 1365 0 1365 0 0 703 0 704 46 58 c55 71 116 196 140
285 27 101 26 302 -4 403 -80 277 -282 480 -559 559 -64 19 -102 22 -213 22
-124 0 -143 -3 -230 -32 -136 -45 -210 -92 -321 -202 -82 -81 -103 -109 -143
-190 -25 -52 -54 -128 -64 -167 -17 -71 -32 -95 -32 -50 0 58 -55 195 -115
288 -138 214 -373 346 -630 354 -60 2 -131 0 -157 -5z m1962 -2355 l0 -145
-1050 0 -1050 0 0 145 0 145 1050 0 1050 0 0 -145z"/>
<path d="M4080 3526 l-355 -82 0 -359 0 -359 360 -83 c198 -45 361 -83 363
-83 1 0 2 236 2 525 0 289 -3 525 -7 524 -5 0 -168 -38 -363 -83z"/>
<path d="M2058 2253 c-77 -117 -1156 -1805 -1176 -1841 -20 -35 -24 -53 -19
-95 4 -42 10 -56 39 -82 49 -45 98 -52 156 -23 44 22 64 53 546 806 l501 784
5 -855 c5 -846 5 -856 26 -884 44 -60 123 -79 181 -43 73 44 67 -22 73 929 l5
855 504 -788 c486 -760 506 -789 548 -808 59 -26 107 -16 156 32 34 34 37 43
37 91 l0 54 -609 950 -608 950 -170 3 -170 2 -25 -37z"/>
</g>
</svg>
